<?xml version="1.0" encoding="UTF-8"?>
<svg width="400" height="400" viewBox="0 0 400 400" fill="none" xmlns="http://www.w3.org/2000/svg">
    <!-- Background Circle -->
    <circle cx="200" cy="200" r="200" fill="#233554"/>
    
    <!-- Cat Ears -->
    <path d="M140 160 L100 80 L180 120 Z" fill="#64ffda"/>
    <path d="M260 160 L220 120 L300 80 Z" fill="#64ffda"/>
    
    <!-- Face Circle -->
    <circle cx="200" cy="200" r="120" fill="#64ffda"/>
    
    <!-- Eyes -->
    <ellipse cx="160" cy="180" rx="15" ry="25" fill="#233554"/>
    <ellipse cx="240" cy="180" rx="15" ry="25" fill="#233554"/>
    
    <!-- Cat nose -->
    <path d="M190 210 L200 220 L210 210 L200 215 Z" fill="#233554"/>
    
    <!-- Smile -->
    <path d="M160 230 Q200 260 240 230" stroke="#233554" stroke-width="5" fill="none"/>
    
    <!-- Whiskers -->
    <line x1="120" y1="210" x2="180" y2="220" stroke="#233554" stroke-width="2"/>
    <line x1="120" y1="220" x2="180" y2="225" stroke="#233554" stroke-width="2"/>
    <line x1="120" y1="230" x2="180" y2="230" stroke="#233554" stroke-width="2"/>
    
    <line x1="220" y1="220" x2="280" y2="210" stroke="#233554" stroke-width="2"/>
    <line x1="220" y1="225" x2="280" y2="220" stroke="#233554" stroke-width="2"/>
    <line x1="220" y1="230" x2="280" y2="230" stroke="#233554" stroke-width="2"/>
    
    <!-- Dog Ears (as accessories) -->
    <path d="M80 140 Q100 80 140 120" stroke="#64ffda" stroke-width="8" fill="none"/>
    <path d="M320 140 Q300 80 260 120" stroke="#64ffda" stroke-width="8" fill="none"/>
</svg>
