<?xml version="1.0" encoding="UTF-8"?>
<svg width="300" height="300" viewBox="0 0 300 300" xmlns="http://www.w3.org/2000/svg">
    <!-- Cat body -->
    <circle class="cat-body" cx="150" cy="150" r="100" fill="#FFE0B2"/>
    
    <!-- Cat face -->
    <g class="cat-face">
        <!-- Eyes -->
        <ellipse cx="120" cy="130" rx="15" ry="20" fill="#4A4A4A"/>
        <ellipse cx="180" cy="130" rx="15" ry="20" fill="#4A4A4A"/>
        <!-- Eye shine -->
        <circle cx="125" cy="125" r="5" fill="white"/>
        <circle cx="185" cy="125" r="5" fill="white"/>
        
        <!-- Nose -->
        <path d="M150,160 L140,170 H160 Z" fill="#FFB6C1"/>
        
        <!-- Whiskers -->
        <g stroke="#4A4A4A" stroke-width="2">
            <line x1="90" y1="160" x2="130" y2="170"/>
            <line x1="90" y1="170" x2="130" y2="175"/>
            <line x1="90" y1="180" x2="130" y2="180"/>
            <line x1="210" y1="160" x2="170" y2="170"/>
            <line x1="210" y1="170" x2="170" y2="175"/>
            <line x1="210" y1="180" x2="170" y2="180"/>
        </g>
    </g>
    
    <!-- Ears -->
    <path d="M90,80 L120,120 L150,80 Z" fill="#FFD180"/>
    <path d="M210,80 L180,120 L150,80 Z" fill="#FFD180"/>
    <path d="M100,85 L120,110 L140,85 Z" fill="#FFB6C1"/>
    <path d="M200,85 L180,110 L160,85 Z" fill="#FFB6C1"/>
    
    <!-- Mouth -->
    <path d="M140,185 Q150,195 160,185" fill="none" stroke="#4A4A4A" stroke-width="2"/>
</svg>
